<?xml version="1.0" standalone="no"?>
<!DOCTYPE svg PUBLIC "-//W3C//DTD SVG 20010904//EN"
 "http://www.w3.org/TR/2001/REC-SVG-20010904/DTD/svg10.dtd">
<svg version="1.0" xmlns="http://www.w3.org/2000/svg"
 width="300.000000pt" height="300.000000pt" viewBox="0 0 300.000000 300.000000"
 preserveAspectRatio="xMidYMid meet">
<metadata>
Created by potrace 1.10, written by Peter Selinger 2001-2011
</metadata>
<g transform="translate(0.000000,300.000000) scale(0.100000,-0.100000)"
fill="#000000" stroke="none">
<path d="M1512 2813 c-8 -3 -27 -25 -42 -50 -24 -38 -29 -41 -35 -25 -8 28
-37 37 -51 17 -12 -16 -8 -50 6 -70 5 -5 -5 -22 -21 -36 -28 -26 -29 -26 -29
-5 0 12 -5 27 -12 34 -15 15 -38 16 -38 2 0 -5 6 -10 14 -10 23 0 30 -20 12
-33 -18 -14 -35 -40 -65 -104 -11 -24 -27 -43 -35 -43 -16 0 -73 36 -176 111
-69 50 -135 89 -150 89 -18 0 -40 -33 -40 -61 0 -16 -4 -29 -9 -29 -17 0 -4
-162 18 -219 l20 -54 -27 -20 c-62 -46 -180 -180 -225 -254 -77 -129 -138
-304 -136 -390 l0 -28 14 30 c7 17 21 62 30 101 38 171 117 305 274 470 l80
82 30 -47 c17 -26 31 -53 31 -59 0 -6 -14 -27 -31 -47 -22 -25 -39 -35 -59
-35 -38 0 -43 -10 -25 -60 8 -23 12 -46 9 -51 -13 -21 -95 -69 -118 -69 -32 0
-33 -13 -3 -29 19 -10 15 -11 -25 -6 -27 2 -48 1 -48 -4 0 -19 43 -61 75 -72
19 -7 31 -17 28 -22 -3 -5 0 -8 7 -5 25 8 21 26 -6 32 -31 8 -84 43 -84 56 0
4 9 6 20 3 26 -7 90 5 90 17 0 6 -12 10 -27 11 l-28 1 28 8 c16 5 43 20 62 34
l33 25 11 -44 c14 -56 14 -55 -6 -55 -9 0 -13 -3 -10 -7 4 -3 -10 -14 -30 -24
l-38 -17 35 -2 c32 -2 33 -3 10 -9 -24 -7 -24 -7 9 -14 18 -4 44 -7 57 -7 12
0 26 -5 29 -10 4 -7 -9 -9 -37 -5 -33 3 -37 3 -18 -4 14 -5 18 -10 10 -10 -8
-1 -1 -8 15 -16 17 -7 26 -14 21 -14 -21 -2 43 -40 78 -47 30 -5 35 -9 23 -16
-10 -5 -23 -5 -34 1 -68 39 -235 111 -243 106 -18 -11 -11 -20 18 -21 15 -1
61 -18 102 -38 41 -20 64 -34 50 -32 -14 3 -34 -2 -44 -9 -17 -13 -13 -14 32
-8 46 5 59 2 128 -33 125 -64 135 -70 129 -76 -3 -3 6 -8 20 -12 31 -8 34 -28
3 -23 -13 2 -17 2 -10 0 21 -7 14 -17 -33 -47 -49 -31 -78 -73 -81 -121 -2
-17 0 -21 3 -10 14 54 41 91 97 131 65 48 77 52 96 29 7 -8 17 -12 22 -9 5 3
20 -4 33 -16 l23 -22 57 21 c31 12 61 19 66 15 6 -3 17 0 26 8 12 9 15 10 9 0
-4 -7 -24 -21 -45 -31 -20 -11 -44 -28 -51 -38 -14 -17 -13 -17 5 -2 38 29
143 89 157 89 10 0 9 -3 -2 -10 -21 -14 -16 -13 94 15 54 14 112 25 129 25 23
0 28 3 20 11 -16 16 4 34 55 50 35 10 45 10 67 -5 14 -9 25 -12 25 -7 0 6 -10
15 -21 22 -20 10 -19 12 21 30 41 19 46 19 94 3 84 -28 83 -28 66 -15 -8 6
-34 16 -57 22 -24 6 -40 15 -37 20 3 5 13 5 24 -1 27 -14 37 -12 16 3 -16 12
-13 15 39 35 31 12 73 23 93 23 22 1 29 3 17 6 -16 5 -14 8 15 24 l35 18 -27
1 c-16 0 -28 -4 -28 -10 0 -5 -18 -13 -40 -16 -22 -4 -40 -10 -40 -13 0 -4
-24 -18 -52 -31 -29 -13 -81 -36 -115 -52 -35 -16 -68 -26 -74 -22 -8 5 -9 3
-4 -6 6 -9 2 -10 -15 -5 -13 4 -20 3 -17 -2 11 -18 -215 -83 -290 -85 -13 0
-21 -4 -18 -8 3 -5 -3 -9 -12 -9 -10 0 -52 -3 -93 -7 -92 -8 -181 12 -245 56
-86 59 -95 125 -26 188 l26 24 -25 -9 c-14 -4 -57 -8 -97 -8 -112 0 -150 41
-179 188 -7 39 -16 84 -20 100 -6 25 -4 27 24 27 17 0 33 3 36 8 6 10 200 -3
336 -22 77 -11 124 -13 175 -6 83 11 213 12 348 3 l97 -6 0 -27 c0 -19 -6 -29
-19 -33 -14 -3 -21 -21 -30 -82 -15 -105 -33 -140 -82 -159 -47 -19 -146 -21
-203 -4 -63 19 -111 75 -137 158 -15 52 -27 74 -42 79 -32 12 -57 1 -70 -28
-6 -14 -26 -51 -45 -81 -18 -30 -22 -42 -10 -26 13 16 30 37 38 47 16 20 90
34 90 18 0 -5 7 -9 15 -9 8 0 15 -4 15 -9 0 -5 3 -16 6 -24 5 -13 0 -13 -39 1
-40 14 -45 14 -67 -1 -24 -17 -24 -17 23 -17 55 0 97 -19 120 -53 16 -24 117
-93 117 -80 0 3 11 -4 25 -17 14 -13 25 -20 25 -16 0 4 7 1 15 -8 18 -18 14
-74 -6 -88 -11 -8 -10 -9 4 -4 21 7 22 -2 1 -25 -13 -15 5 -11 90 17 58 20
106 40 106 44 0 14 -64 16 -75 3 -5 -7 -21 -14 -34 -15 -25 -3 -24 -4 -33 72
-3 22 2 25 50 36 69 16 99 45 119 115 17 63 43 83 91 74 l27 -6 -29 16 c-17
10 -40 15 -55 12 -21 -5 -27 -2 -28 13 -2 29 15 37 107 54 84 14 85 14 102 -7
l17 -22 10 28 c6 16 11 29 11 31 0 3 -128 -11 -171 -19 -32 -6 -34 -4 -34 19
0 25 3 26 54 26 102 0 45 10 -90 15 -129 5 -275 20 -234 24 11 1 31 9 45 17
24 14 23 15 -24 9 -27 -4 -56 -9 -65 -12 -11 -4 -9 -1 4 10 11 8 29 17 40 20
14 3 10 5 -11 6 -18 1 -43 -8 -58 -20 -15 -12 -26 -16 -26 -9 0 10 -4 9 -17 0
-10 -7 -5 -1 10 14 15 14 25 26 22 26 -18 0 -46 -24 -65 -55 -23 -37 -49 -46
-51 -17 0 10 -3 12 -6 5 -9 -24 -23 -13 -23 17 0 28 34 110 45 110 3 0 -1 -13
-10 -30 -24 -47 -17 -49 11 -2 27 44 50 57 39 21 -6 -17 0 -14 23 12 17 19 29
35 28 36 -1 1 -24 -6 -52 -16 -59 -23 -82 -52 -93 -117 l-9 -49 -3 50 c-1 28
-3 60 -3 72 0 29 -8 20 -22 -25 -11 -36 -12 -35 -7 18 3 41 2 51 -6 40 -6 -8
-11 -35 -12 -60 -1 -38 -2 -41 -9 -20 -4 14 -9 18 -10 10 -1 -11 -4 -9 -11 5
-7 14 -8 5 -5 -32 6 -62 -8 -77 -37 -42 -11 13 -24 23 -29 21 -5 -1 -11 5 -14
13 -3 8 -10 12 -15 10 -5 -3 -21 2 -36 12 -28 17 -28 17 -10 -3 9 -11 17 -23
17 -27 0 -7 -35 -1 -53 9 -9 6 -9 5 0 -7 11 -13 1 -16 -82 -18 l-95 -2 31 53
c18 29 48 78 68 108 30 45 34 59 26 78 -5 12 -13 22 -17 22 -5 0 -8 5 -8 12 0
6 -8 20 -18 31 -12 15 -13 18 -2 12 8 -5 2 6 -14 25 -16 19 -42 63 -57 98 -29
63 -42 75 -53 46 -9 -25 -7 -34 8 -34 17 0 30 -32 31 -81 1 -19 9 -46 18 -59
22 -32 22 -46 0 -30 -10 7 -3 -1 15 -19 35 -34 31 -41 -8 -14 l-25 16 24 -26
c14 -15 21 -27 17 -27 -4 0 -1 -10 5 -22 12 -23 12 -23 -10 -4 -11 11 -21 14
-21 8 0 -6 10 -18 22 -26 12 -9 17 -16 10 -16 -10 0 -10 -4 0 -20 18 -29 1
-36 -22 -9 -19 23 -70 120 -75 143 -1 6 -6 25 -10 41 -5 17 -8 46 -8 65 1 42
21 151 28 158 9 9 100 -33 100 -45 0 -6 4 -15 9 -20 5 -5 6 -3 2 5 -10 17 9
15 24 -2 6 -8 34 -29 61 -47 27 -17 48 -34 45 -36 -3 -3 -19 5 -35 17 -17 12
-42 23 -56 26 -23 4 -25 3 -15 -15 6 -12 20 -26 33 -32 27 -15 89 -21 81 -8
-9 15 5 10 36 -13 l30 -21 -35 -24 c-19 -13 -47 -23 -62 -23 -19 0 -24 -3 -14
-9 9 -6 10 -11 2 -15 -6 -4 -9 -11 -6 -16 3 -5 38 14 77 41 39 27 76 49 81 49
5 0 18 -11 28 -25 11 -13 43 -32 73 -41 49 -15 56 -15 112 1 32 9 73 28 91 41
17 13 40 24 50 25 16 0 16 1 -2 8 -11 5 -22 7 -25 6 -3 -2 -6 16 -7 39 -2 29
0 37 7 26 5 -8 10 -25 10 -37 0 -15 6 -23 18 -23 14 0 15 2 2 10 -12 8 -11 10
6 10 36 0 85 -31 98 -61 l12 -30 20 22 c31 36 134 119 146 119 7 0 -5 -16 -26
-35 -22 -20 -35 -39 -31 -46 4 -6 2 -15 -5 -19 -7 -4 -11 -12 -9 -17 2 -6 14
3 27 19 20 24 21 27 5 22 -10 -3 4 15 31 40 26 26 41 43 32 40 -9 -3 -16 -3
-16 0 0 12 103 55 147 62 39 6 42 5 58 -26 49 -95 20 -265 -70 -415 -45 -74
-40 -92 26 -101 l49 -7 0 -46 c0 -32 -3 -42 -10 -31 -5 8 -13 11 -17 6 -4 -4
18 -32 50 -61 31 -28 57 -55 57 -58 0 -9 -61 44 -112 97 -44 46 -64 42 -22 -5
10 -12 13 -19 7 -15 -21 12 -14 -9 10 -31 30 -28 105 -65 117 -58 5 3 24 -1
42 -9 l33 -14 -37 -1 c-41 -1 -54 -21 -14 -21 33 0 76 17 76 30 0 5 -12 10
-26 10 -14 0 -23 4 -20 9 3 5 -4 11 -17 15 -12 3 -42 22 -65 42 -41 34 -43 39
-37 75 9 50 -7 77 -48 81 -30 3 -32 5 -29 38 2 19 19 69 37 110 68 153 82 287
38 362 -18 31 -23 33 -74 33 -66 0 -145 -36 -226 -102 l-55 -45 -82 23 c-61
18 -87 30 -107 53 l-27 31 29 17 c29 18 59 65 59 92 0 9 -9 21 -20 28 -11 7
-20 22 -20 33 0 37 -30 53 -68 38z m56 -38 c2 -14 -12 -32 -42 -57 -24 -21
-47 -47 -51 -58 -3 -11 -12 -20 -20 -20 -11 0 -11 8 -3 38 14 50 45 109 60
115 26 11 53 2 56 -18z m-137 -46 c6 -13 8 -36 4 -58 l-8 -36 -18 40 c-10 22
-19 48 -19 58 0 24 27 21 41 -4z m169 -21 c-1 -30 -16 -49 -64 -82 -35 -24
-76 -35 -76 -20 0 9 40 66 68 97 32 34 72 37 72 5z m-155 -96 c-4 -15 2 -21
27 -28 22 -7 34 -17 39 -37 9 -34 -6 -93 -26 -101 -12 -4 -15 3 -15 35 0 59
-41 124 -90 142 -8 3 4 6 28 6 38 1 43 -1 37 -17z m-84 -45 c41 -27 60 -62 57
-102 -3 -29 -5 -30 -55 -33 -45 -3 -56 1 -78 22 -29 29 -32 62 -8 96 31 46 39
48 84 17z m-313 -792 c20 -7 15 -55 -5 -55 -23 0 -95 41 -100 56 -4 11 69 10
105 -1z"/>
<path d="M1952 2560 c-24 -17 -48 -42 -54 -55 -6 -13 -14 -22 -18 -20 -10 6
-30 -50 -30 -81 0 -13 -5 -24 -11 -24 -11 0 -8 -20 8 -74 4 -13 2 -16 -8 -10
-15 9 23 -47 43 -64 10 -8 22 -7 46 5 38 18 95 80 87 94 -4 5 -2 9 3 9 14 0
40 71 46 127 4 27 1 63 -7 83 -16 48 -49 51 -105 10z m82 -25 c15 -22 15 -34
6 -88 -7 -34 -15 -64 -19 -67 -5 -3 -16 -18 -25 -35 -10 -16 -15 -22 -12 -12
9 28 -2 20 -29 -23 -43 -67 -78 -47 -79 45 0 41 43 130 57 116 7 -7 18 -4 35
9 14 11 33 20 44 20 11 0 16 4 12 11 -4 7 -21 9 -40 6 -19 -3 -34 -4 -34 -1 0
3 61 44 66 44 1 0 9 -11 18 -25z"/>
<path d="M1957 2456 c-13 -10 -18 -28 -18 -62 -1 -78 0 -79 25 -33 24 46 25
68 0 35 -19 -26 -18 -3 1 34 8 16 25 31 37 33 22 4 22 4 -2 5 -14 1 -33 -5
-43 -12z"/>
<path d="M871 2539 c0 -19 7 -52 14 -74 14 -38 14 -39 8 -5 -4 19 -7 49 -8 67
0 17 -4 35 -8 39 -4 4 -7 -8 -6 -27z"/>
<path d="M2110 2302 c0 -4 34 -40 75 -80 163 -159 275 -389 291 -601 7 -90 13
-113 25 -105 16 9 1 150 -26 259 -44 175 -128 321 -261 453 -76 75 -104 95
-104 74z"/>
<path d="M1527 2282 c-10 -10 -17 -21 -17 -24 0 -8 69 26 70 35 0 14 -37 7
-53 -11z"/>
<path d="M1064 2273 c-12 -2 -34 -18 -50 -34 -24 -25 -25 -29 -9 -24 20 7 20
6 1 -9 -11 -9 -23 -16 -28 -16 -4 0 -8 -5 -8 -10 0 -6 16 0 35 12 19 13 30 25
25 26 -16 6 0 22 21 22 11 0 17 5 14 10 -8 13 30 13 75 0 29 -8 32 -8 20 4
-17 16 -65 25 -96 19z"/>
<path d="M1583 2272 c-7 -4 7 -7 30 -7 23 0 53 -4 67 -8 24 -8 24 -7 6 7 -21
17 -82 21 -103 8z"/>
<path d="M1186 2251 c11 -10 22 -14 25 -9 4 6 10 -3 13 -18 6 -22 9 -25 17
-13 5 7 9 19 9 24 0 6 -5 3 -10 -5 -8 -13 -10 -13 -10 2 0 17 -28 38 -51 38
-8 0 -5 -7 7 -19z"/>
<path d="M1614 2241 c3 -4 30 -11 60 -14 45 -4 151 -45 121 -47 -11 0 51 -40
62 -40 4 0 -9 16 -28 36 -35 37 -112 79 -117 64 -2 -4 -20 -4 -40 1 -48 11
-64 11 -58 0z"/>
<path d="M2015 2240 c-4 -6 -10 -8 -14 -5 -5 2 -19 -7 -31 -20 -22 -24 -47
-35 -36 -16 6 9 -23 25 -31 17 -3 -3 8 -21 24 -40 22 -29 29 -33 31 -19 2 10
13 27 26 38 26 24 51 55 43 55 -3 0 -9 -5 -12 -10z"/>
<path d="M911 2099 c-23 -9 -24 -12 -18 -76 7 -76 39 -148 78 -176 37 -27 136
-34 177 -13 37 19 70 77 88 154 11 48 11 55 -6 72 -10 10 -42 23 -72 28 -82
16 -220 22 -247 11z m149 -14 c0 -2 -15 -32 -34 -66 -22 -39 -36 -56 -41 -49
-10 16 45 120 63 120 6 0 12 -2 12 -5z m-85 -55 c-20 -40 -19 -51 10 -83 41
-44 72 -60 100 -53 16 4 34 1 46 -7 19 -14 19 -14 -3 -29 -28 -18 -69 -16
-121 5 -42 18 -71 68 -83 146 -6 36 -4 46 11 57 13 9 23 10 36 3 18 -9 18 -12
4 -39z m185 40 c0 -6 -18 -44 -41 -85 l-41 -75 -29 15 c-16 9 -29 18 -29 21 0
3 16 35 36 70 33 59 38 64 70 64 19 0 34 -5 34 -10z m66 -24 c3 -8 -9 -43 -28
-78 -24 -46 -39 -64 -56 -66 -23 -3 -22 0 20 77 44 82 54 93 64 67z"/>
<path d="M1470 2071 c-53 -11 -60 -18 -60 -65 0 -62 26 -128 66 -167 35 -34
36 -34 127 -34 141 0 171 30 184 179 l6 74 -39 11 c-42 12 -227 13 -284 2z
m238 -20 c-2 -3 -20 -39 -42 -78 -36 -69 -41 -73 -72 -73 -19 0 -34 2 -34 5 0
3 20 41 45 84 42 74 46 77 75 73 17 -2 30 -7 28 -11z m-98 5 c0 -13 -83 -156
-90 -156 -17 0 -21 20 -7 42 8 13 26 44 41 71 15 26 33 47 41 47 8 0 15 -2 15
-4z m-80 -16 c0 -6 -12 -34 -26 -62 -37 -73 -26 -93 58 -102 43 -4 67 -12 76
-24 12 -16 8 -17 -42 -20 -70 -4 -97 13 -131 83 -36 72 -32 117 10 126 46 10
55 10 55 -1z m243 -7 c-4 -20 -105 -183 -114 -183 -5 0 -9 2 -9 5 0 8 70 146
88 173 14 21 39 25 35 5z"/>
<path d="M1873 1943 c-15 -6 -6 -18 55 -78 30 -29 50 -41 63 -38 10 3 16 10
13 15 -4 6 3 8 17 4 17 -5 20 -4 9 2 -8 5 -33 13 -55 17 -32 6 -36 9 -20 15
16 6 13 8 -17 14 -62 11 -53 25 14 21 l63 -4 -55 19 c-58 20 -68 21 -87 13z"/>
<path d="M2047 1860 c9 -8 101 -40 117 -40 27 0 -17 23 -68 34 -32 8 -54 10
-49 6z"/>
<path d="M1179 1833 c-17 -33 10 -91 51 -106 16 -6 31 -18 34 -27 3 -13 4 -13
5 1 0 9 15 22 31 29 33 14 70 58 70 84 0 30 -44 47 -113 45 -57 -2 -67 -5 -78
-26z m145 11 c36 -14 12 -24 -54 -24 -64 0 -89 10 -57 23 18 8 93 8 111 1z
m-36 -66 c-3 -7 -15 -13 -28 -13 -13 0 -25 6 -27 13 -3 8 6 12 27 12 21 0 30
-4 28 -12z"/>
<path d="M1980 1801 c0 -22 -18 -31 -68 -32 -20 0 -46 -4 -57 -9 -16 -7 -14
-9 15 -10 19 0 52 -4 73 -9 21 -5 37 -5 37 0 0 5 7 9 16 9 8 0 12 4 9 10 -3 5
6 12 20 16 13 3 22 10 19 15 -3 5 1 9 8 10 20 1 -24 18 -49 18 -16 1 -23 -5
-23 -18z"/>
<path d="M1830 1731 c0 -6 -20 -13 -45 -17 -53 -7 -52 -12 2 -25 30 -7 49 -4
91 13 34 14 48 24 40 30 -18 11 -88 10 -88 -1z"/>
<path d="M606 1711 c-9 -10 -21 -32 -25 -47 -6 -26 -12 -29 -51 -32 -53 -4
-65 -13 -80 -58 -9 -27 -9 -40 3 -63 13 -26 13 -32 -3 -58 -25 -42 -115 -122
-155 -139 -40 -16 -40 -16 -21 -52 34 -65 134 -130 234 -151 47 -10 162 -16
162 -8 0 1 -9 28 -20 60 -11 31 -20 78 -20 105 0 52 16 112 30 112 5 0 35 -16
67 -35 68 -41 77 -43 70 -13 -6 21 20 85 30 75 2 -3 -3 -16 -11 -30 -13 -19
-14 -30 -6 -51 6 -18 6 -25 0 -21 -18 11 -11 -5 14 -32 13 -14 27 -42 31 -61
10 -52 101 -142 145 -142 17 0 39 4 49 10 17 8 19 2 24 -73 3 -45 12 -102 19
-127 13 -42 12 -47 -13 -95 -37 -68 -42 -100 -29 -180 11 -69 30 -104 98 -176
l33 -36 -27 -22 c-15 -12 -34 -19 -43 -17 -54 16 -74 18 -67 7 9 -15 4 -14
-30 4 -16 8 -40 15 -54 15 -31 0 -81 -44 -74 -65 5 -13 -9 -15 -82 -17 -65 -1
-74 -3 -34 -5 32 -3 49 -7 42 -12 -7 -4 112 -8 265 -8 153 0 350 -2 438 -6 92
-4 147 -3 130 2 -16 5 -23 10 -15 11 30 5 -77 21 -205 30 -71 6 -144 8 -162 5
-17 -3 -33 -1 -35 5 -2 7 -14 6 -35 -2 -25 -9 -37 -9 -59 0 -14 7 -24 15 -21
18 3 3 14 0 25 -7 16 -10 27 -9 61 4 46 19 64 22 41 7 -11 -7 -12 -10 -2 -10
8 0 27 9 42 20 24 17 29 29 32 67 2 37 9 50 31 67 25 19 42 21 140 20 123 0
178 -16 262 -74 24 -17 52 -31 62 -33 10 -1 34 -13 53 -26 35 -22 35 -22 -4
13 -22 20 -81 58 -133 84 -51 26 -93 51 -93 55 0 4 8 3 19 -2 10 -6 21 -8 23
-5 7 7 77 -27 128 -62 85 -60 112 -105 87 -145 -10 -16 -24 -19 -89 -19 -42 0
-80 -4 -83 -10 -4 -6 26 -10 82 -11 105 -1 86 -17 -21 -18 -38 -1 -67 -4 -63
-7 7 -7 544 14 597 23 28 5 14 9 -70 20 -58 7 -110 13 -117 14 -7 1 -10 6 -7
11 8 12 -42 28 -90 28 -23 0 -47 5 -54 12 -15 15 -16 58 -2 58 6 0 10 11 10
24 0 13 4 26 9 28 6 2 11 24 13 50 3 52 4 53 45 37 32 -12 172 -21 154 -9 -8
4 9 10 38 14 29 4 56 4 62 1 5 -4 8 -1 7 6 -2 8 11 16 32 20 19 3 28 7 20 8
-26 4 21 19 65 22 l40 2 -35 6 -35 6 60 28 c33 16 47 26 32 22 -26 -5 -24 -1
25 47 28 28 43 48 33 44 -17 -6 -16 -3 4 18 13 14 29 35 35 48 6 12 23 28 36
35 20 10 21 13 7 13 -17 0 -17 2 3 28 12 15 35 35 53 45 23 12 27 17 12 17
-19 0 -19 0 1 15 10 8 15 15 11 15 -5 0 6 19 25 42 18 23 27 38 19 34 -11 -7
-13 -4 -6 15 11 37 18 181 9 188 -5 3 -25 37 -44 75 -19 38 -36 63 -38 57 -3
-8 -13 -4 -31 12 -34 33 -121 67 -169 67 -38 0 -91 -11 -126 -26 -14 -5 -17
-4 -12 4 11 19 2 14 -39 -18 -44 -35 -66 -39 -39 -7 10 12 -3 2 -29 -23 -32
-30 -46 -38 -41 -25 5 15 2 14 -12 -5 -24 -33 -30 -40 -60 -73 -13 -16 -34
-50 -45 -75 -11 -26 -24 -54 -29 -62 -4 -9 -11 -31 -15 -49 -5 -25 -10 -30
-16 -20 -6 10 -9 6 -9 -13 0 -16 -4 -28 -9 -28 -5 0 -12 -19 -15 -42 -7 -42
-50 -128 -64 -128 -12 0 -75 215 -77 263 -1 25 2 44 7 41 5 -3 6 6 3 20 -3 14
-7 37 -10 51 -4 19 -2 23 10 19 12 -5 13 -1 4 25 -6 17 -9 36 -6 43 2 7 -4 29
-14 49 -10 20 -16 39 -13 42 9 9 -22 60 -52 87 -18 15 -22 17 -12 5 9 -11 28
-49 44 -85 26 -61 27 -73 26 -202 -1 -135 -1 -138 42 -275 24 -76 47 -154 51
-173 l6 -35 -19 28 c-11 16 -34 37 -51 48 -48 29 -49 23 -2 -13 40 -31 96
-112 125 -182 9 -22 10 -54 5 -111 -4 -44 -8 -85 -8 -91 -1 -17 -41 -55 -52
-49 -5 4 -9 0 -9 -7 0 -9 -3 -9 -10 2 -9 13 -10 13 -10 0 0 -10 -7 -7 -19 10
-11 13 -17 28 -15 32 5 8 -23 68 -32 68 -2 0 3 -14 11 -31 23 -44 12 -47 -15
-5 -23 38 -38 50 -20 17 16 -31 12 -36 -12 -14 -30 28 -157 91 -139 69 16 -19
1 -22 -18 -3 -11 10 -12 9 -6 -2 9 -15 -20 -9 -67 16 -38 19 -35 10 5 -17 27
-18 28 -20 7 -14 -24 7 -49 11 -80 13 -13 1 -13 2 0 11 9 6 10 10 3 10 -6 0
-15 -4 -18 -10 -3 -5 -35 -7 -75 -4 -52 4 -70 2 -70 -7 0 -7 -3 -9 -7 -6 -10
11 -43 -24 -43 -47 -1 -20 -1 -20 -11 -3 -6 10 -8 24 -6 32 3 7 0 21 -8 31
-11 16 -12 13 -5 -26 5 -25 9 -54 9 -65 0 -18 -1 -17 -14 5 -19 33 -19 21 0
-23 20 -47 20 -47 -15 -47 -24 0 -37 10 -70 53 -23 28 -47 59 -55 69 -7 9 -11
19 -8 22 4 3 1 6 -5 6 -16 0 -33 60 -33 122 -1 36 6 70 21 101 23 48 40 61 40
30 0 -28 55 -136 80 -158 23 -20 23 -20 17 0 -6 19 -6 19 6 1 7 -11 24 -33 39
-50 26 -29 27 -30 28 -8 0 26 6 27 54 7 20 -8 36 -13 36 -11 0 5 -63 43 -71
42 -4 -1 -17 8 -29 19 l-23 20 7 -22 c10 -33 1 -28 -24 12 -12 19 -26 34 -32
32 -14 -3 -75 108 -94 173 -19 65 -37 234 -28 273 7 36 27 34 41 -3 6 -16 22
-34 35 -40 12 -5 30 -14 38 -19 50 -28 82 -42 77 -33 -4 5 0 13 9 16 10 4 13
2 9 -7 -4 -6 2 -2 13 10 l19 21 69 -42 c98 -60 187 -121 204 -141 9 -11 13
-36 12 -65 -1 -27 3 -59 8 -72 9 -21 10 -20 7 10 -2 17 -1 32 3 32 4 0 5 15 2
33 -4 26 -2 30 9 20 39 -37 88 3 96 80 6 55 -19 88 -97 127 -77 39 -87 54 -29
45 24 -4 50 -7 57 -8 6 0 12 -5 13 -11 0 -6 5 0 11 14 6 15 12 20 15 12 3 -6
15 9 28 35 30 59 22 74 -19 34 -47 -45 -79 -54 -180 -46 -78 6 -161 22 -129
24 7 1 10 8 7 16 -4 8 -11 12 -18 9 -6 -3 -3 1 7 9 13 11 15 17 7 22 -7 4 -10
16 -7 26 3 10 0 17 -6 16 -14 -3 -16 26 -2 35 22 16 -28 7 -65 -12 -39 -20
-110 -29 -81 -11 10 6 5 11 -18 16 -34 7 -44 3 -47 -20 -1 -8 -12 -28 -23 -44
-16 -23 -20 -38 -15 -68 3 -21 8 -42 11 -48 3 -5 0 -5 -7 2 -7 6 -15 26 -19
45 -6 27 -2 41 20 74 28 41 25 64 -8 64 -7 0 -13 7 -13 16 0 8 -4 12 -10 9
-11 -7 -4 40 15 98 7 20 10 37 6 37 -10 0 -41 -39 -51 -65 -8 -20 -6 -23 7
-18 13 5 15 2 10 -18 -4 -13 -7 -27 -7 -31 0 -4 -11 -3 -24 4 -15 6 -35 33
-50 64 -18 39 -31 54 -46 54 -13 0 -18 -5 -14 -15 4 -8 2 -15 -4 -15 -5 0 -12
-7 -15 -14 -4 -11 -1 -13 11 -9 15 6 15 5 3 -10 -7 -9 -17 -17 -22 -17 -13 0
-11 34 3 48 9 9 7 16 -7 32 -10 11 -24 19 -31 16 -7 -3 -20 2 -31 9 -19 15
-47 20 -39 7 2 -4 -3 -16 -11 -27 -15 -20 -15 -20 -8 3 3 12 2 22 -3 22 -6 0
-19 16 -31 35 -11 19 -27 35 -36 35 -25 0 -17 16 21 47 32 26 35 32 25 50 -13
26 -127 103 -151 103 -9 0 -25 -9 -34 -19z m97 -27 c31 -19 57 -40 57 -45 0
-16 -45 -79 -56 -79 -6 0 -17 6 -23 14 -6 7 -31 21 -56 31 -25 9 -45 18 -45
20 0 22 46 95 59 95 4 0 32 -16 64 -36z m-89 -95 c81 -41 84 -44 59 -71 -42
-46 -57 -90 -61 -183 -3 -73 0 -102 17 -152 12 -34 21 -65 21 -68 0 -19 -165
13 -236 46 -27 13 -71 45 -98 72 l-49 49 49 28 c80 46 164 144 164 192 0 24
49 118 61 118 6 0 39 -14 73 -31z m146 -114 c33 -17 48 -30 44 -39 -3 -9 -13
-12 -22 -9 -15 5 -15 4 0 -8 15 -12 15 -19 5 -50 l-11 -37 -41 25 c-22 14 -50
35 -62 46 l-23 20 22 39 c12 21 26 38 30 38 5 0 31 -11 58 -25z m1817 -26 c14
-5 39 -21 55 -34 16 -14 33 -23 38 -20 4 3 7 -1 7 -8 -1 -6 11 -38 26 -69 27
-56 50 -180 28 -148 -6 8 -11 24 -12 35 0 12 -5 6 -11 -15 l-11 -35 -13 35
c-7 19 -13 29 -13 23 -1 -7 -8 -13 -16 -13 -22 0 -19 -9 15 -40 31 -29 40 -29
40 4 0 18 2 17 15 -8 17 -32 20 -49 5 -26 -9 13 -11 13 -20 0 -5 -8 -10 -23
-10 -33 0 -11 -7 -35 -17 -54 -14 -30 -20 -34 -43 -30 -22 5 -28 1 -36 -22 -8
-20 -7 -30 3 -39 10 -10 17 -6 34 20 12 18 19 26 16 18 -7 -23 -136 -220 -144
-220 -3 0 -4 3 0 6 3 3 2 16 -3 29 -5 14 -5 26 2 33 6 6 7 15 3 22 -5 8 -11 6
-20 -7 -12 -15 -13 -5 -9 70 2 55 0 87 -6 87 -6 0 -9 -13 -8 -29 1 -17 -5 -38
-14 -48 -15 -17 -15 -22 7 -73 13 -30 24 -64 25 -75 0 -33 -48 -93 -93 -116
-23 -11 -56 -36 -74 -55 -18 -19 -41 -35 -52 -35 -24 -2 -30 -3 -51 -13 -17
-7 -56 -4 -66 7 -3 3 7 9 22 12 47 11 51 13 21 14 -16 1 -26 5 -22 11 3 6 0
10 -7 10 -7 0 -19 -10 -26 -21 -12 -18 -21 -21 -59 -16 -55 6 -72 20 -56 46
13 21 0 41 -26 41 -14 -1 -13 -3 2 -14 19 -15 22 -26 7 -26 -13 0 -54 83 -74
152 -21 72 -21 69 15 56 21 -7 27 -13 19 -18 -10 -6 -7 -14 11 -32 13 -13 24
-33 24 -43 0 -11 8 -21 18 -23 14 -3 16 0 7 22 -15 40 -58 104 -77 115 -17 9
-16 12 11 40 17 17 26 31 22 31 -5 0 -2 8 5 17 8 9 9 14 3 10 -20 -12 -7 58
21 109 23 44 29 38 10 -10 -7 -16 -6 -17 15 -6 15 8 20 8 16 1 -4 -6 -2 -11 4
-11 6 0 8 -5 4 -12 -4 -7 -3 -8 5 -4 6 4 9 12 6 17 -3 5 1 6 8 3 8 -3 17 -14
20 -25 3 -11 14 -19 25 -19 11 0 27 -7 36 -15 8 -8 18 -15 22 -15 3 0 15 -10
25 -22 11 -11 22 -18 27 -14 8 9 -71 83 -130 123 -39 26 -48 52 -25 71 29 24
102 14 123 -17 7 -9 32 -30 56 -47 24 -16 59 -45 78 -65 61 -63 110 -84 110
-48 0 6 -4 7 -10 4 -5 -3 -10 0 -10 8 0 8 -14 20 -30 26 -17 5 -30 14 -29 18
4 23 -3 35 -15 30 -11 -4 -13 -1 -9 10 5 12 2 15 -10 10 -18 -7 -33 8 -17 18
6 4 8 11 5 16 -4 5 -19 2 -37 -7 -16 -9 -27 -11 -23 -5 10 18 16 61 8 60 -5
-1 -10 0 -13 1 -3 1 -13 3 -23 5 -15 3 -16 1 -6 -11 6 -7 15 -12 19 -9 4 3 10
-2 14 -10 3 -8 0 -14 -7 -12 -21 4 -47 44 -48 74 l0 28 -16 -22 c-21 -31 -30
-29 -53 9 l-19 31 -12 -26 c-7 -15 -18 -27 -25 -27 -6 0 -15 -12 -18 -26 -4
-15 -9 -24 -11 -22 -8 8 26 110 41 125 8 8 14 19 14 24 0 24 98 115 157 146
29 16 53 32 53 36 0 5 4 6 9 3 4 -3 28 -1 52 3 50 10 157 5 196 -10z m-1687
-19 c12 -8 11 -10 -7 -10 -14 0 -23 -6 -23 -16 0 -8 5 -12 10 -9 18 11 11 -11
-9 -30 -11 -9 -21 -33 -23 -54 -3 -34 -3 -34 -9 -9 -4 16 0 39 7 54 8 14 12
29 10 33 -5 9 12 51 21 51 4 0 15 -5 23 -10z m12 -92 c-14 -23 -18 -45 -15
-73 3 -30 2 -36 -6 -25 -17 25 -12 80 10 112 28 39 37 28 11 -14z m52 -25
c-10 -15 -21 -44 -25 -63 l-7 -35 -1 35 c-1 34 34 108 46 96 3 -3 -3 -18 -13
-33z m46 7 c6 10 17 8 46 -11 22 -13 41 -27 42 -31 2 -5 13 -13 24 -19 16 -8
19 -8 13 1 -6 9 -2 9 14 1 11 -7 21 -13 21 -14 0 -2 -11 -18 -25 -37 -13 -18
-22 -37 -19 -41 2 -5 -28 12 -67 36 -40 25 -75 42 -78 39 -3 -3 3 -12 13 -20
17 -12 17 -14 4 -14 -24 0 -31 16 -23 52 5 22 9 27 16 17 5 -9 7 1 4 26 -2 22
-2 31 1 21 5 -14 8 -16 14 -6z m-92 -129 c4 1 10 0 15 -1 4 -1 12 -4 17 -5 6
-1 11 -4 13 -5 1 -1 14 -3 29 -4 18 -2 25 1 21 11 -7 18 13 16 48 -4 34 -20
37 -41 8 -77 -32 -40 -65 -34 -125 22 -51 46 -74 79 -74 103 0 6 9 0 21 -14
11 -15 23 -26 27 -26z m456 17 c13 -36 1 -58 -29 -58 -14 0 -25 -4 -25 -9 0
-5 -3 -16 -6 -25 -6 -14 -3 -14 32 0 25 11 51 14 78 10 54 -9 237 -96 229
-109 -3 -6 -1 -7 5 -3 18 11 60 -23 67 -55 7 -32 -9 -91 -30 -109 -11 -9 -20
-5 -41 20 -16 17 -65 56 -111 87 -46 31 -83 61 -83 66 0 6 -3 7 -7 4 -3 -4
-12 1 -20 11 -10 11 -12 12 -8 2 4 -10 2 -9 -8 2 -8 10 -17 15 -20 11 -4 -3
-7 -1 -7 6 0 7 -4 9 -10 6 -5 -3 -10 -1 -10 6 0 7 -3 10 -6 6 -3 -3 -18 -1
-32 4 -18 7 -28 6 -34 -3 -5 -7 -6 5 -2 30 4 27 3 42 -4 42 -18 0 -31 -33 -27
-73 2 -24 0 -35 -7 -31 -6 4 -8 27 -6 54 4 38 2 47 -9 43 -9 -4 -13 4 -13 23
-1 25 -2 26 -11 11 -14 -24 -17 -67 -7 -96 8 -21 7 -22 -7 -11 -20 17 -19 65
3 118 16 40 19 43 47 38 17 -3 44 -2 60 3 40 12 48 9 59 -21z m-16 -702 c-2
-1 -13 -10 -25 -20 -23 -19 -23 -19 -23 3 0 12 4 19 10 16 6 -3 10 -2 10 4 0
6 7 8 15 4 9 -3 15 -6 13 -7z m-278 -192 c0 -3 -9 -2 -20 1 -12 4 -27 1 -35
-5 -10 -8 -15 -9 -15 -2 0 18 33 31 52 21 10 -5 18 -12 18 -15z m878 -32 c2
-7 -9 -5 -27 4 -17 9 -28 20 -25 25 7 11 46 -11 52 -29z"/>
<path d="M461 1420 c-12 -21 -40 -55 -63 -75 -23 -19 -35 -35 -28 -35 8 0 41
28 73 63 36 37 65 61 75 59 13 -3 13 0 -3 12 -28 21 -29 21 -54 -24z"/>
<path d="M350 1269 c75 -65 144 -98 239 -114 42 -7 44 -6 28 9 -9 9 -19 33
-22 54 -3 20 -9 48 -12 62 -6 22 -7 20 -13 -15 -7 -51 -14 -61 -45 -69 -30 -8
-68 10 -142 65 -62 46 -83 51 -33 8z"/>
<path d="M2329 1432 c-25 -9 -60 -29 -77 -44 -37 -31 -43 -47 -10 -24 30 21
41 20 29 -3 -14 -25 -2 -35 19 -16 16 14 18 14 23 -5 3 -11 0 -23 -5 -27 -7
-4 -8 -1 -3 7 5 9 4 11 -4 6 -9 -6 -9 -11 0 -22 10 -13 14 -12 29 1 25 23 36
18 14 -7 l-19 -21 30 18 30 19 -29 -32 c-36 -38 -25 -42 21 -6 35 26 44 23 17
-7 -15 -16 -14 -17 4 -12 11 2 30 -1 43 -7 l23 -13 -22 -17 c-28 -23 -29 -36
-1 -16 17 11 24 12 34 3 11 -10 10 -15 -2 -29 -8 -9 -10 -18 -5 -22 5 -3 15 1
22 9 7 8 16 15 20 15 10 0 6 -42 -5 -61 -7 -11 -5 -11 10 1 17 14 18 13 12
-20 l-6 -35 20 37 19 38 -40 51 c-22 28 -40 54 -40 59 0 4 -28 26 -62 48 -101
66 -108 72 -102 86 8 21 37 25 74 10 18 -8 42 -14 54 -14 28 0 153 -121 162
-156 5 -20 9 -22 20 -13 19 15 18 38 -2 46 -13 5 -13 7 -2 14 9 6 3 9 -17 9
-29 1 -29 1 -11 15 11 8 14 15 8 15 -7 0 -12 7 -12 15 0 10 -11 15 -37 16 -34
1 -35 2 -13 9 23 7 23 8 -10 10 -22 2 -28 4 -15 7 17 5 15 7 -10 19 -17 8 -20
11 -8 8 26 -6 40 11 16 21 -10 3 -47 9 -83 12 -49 5 -59 8 -40 14 19 5 21 7 5
7 -11 0 -41 -7 -66 -16z"/>
<path d="M2649 1353 c6 -12 11 -34 11 -49 0 -36 13 -22 16 17 1 17 0 28 -3 25
-4 -3 -12 2 -20 12 -13 15 -13 15 -4 -5z"/>
<path d="M2167 1295 c-21 -25 -34 -45 -29 -45 12 0 72 67 72 80 0 15 -2 13
-43 -35z"/>
<path d="M2562 1110 c-10 -27 -5 -53 9 -44 8 5 14 -32 10 -66 -2 -9 4 -6 14 8
15 21 15 26 -3 75 -19 50 -21 51 -30 27z"/>
<path d="M2537 1058 c-3 -7 -13 -31 -22 -53 -15 -34 -15 -38 -1 -26 9 7 20 29
26 49 9 35 8 55 -3 30z"/>
<path d="M2005 999 c-10 -15 -5 -17 40 -11 32 4 36 6 20 13 -29 11 -53 11 -60
-2z"/>
<path d="M2027 914 c-15 -8 -32 -12 -37 -9 -6 3 -10 2 -10 -4 0 -6 12 -13 28
-16 15 -4 35 -10 44 -15 10 -6 24 -7 33 -4 13 5 11 10 -9 29 -14 13 -22 26
-19 29 10 10 0 6 -30 -10z"/>
<path d="M2235 905 c-17 -12 -18 -14 -3 -15 9 0 20 -5 24 -12 5 -8 2 -9 -10
-5 -10 4 -15 3 -11 -3 3 -6 13 -10 21 -10 9 0 14 -6 11 -12 -2 -7 -11 -12 -20
-12 -9 1 -13 -4 -10 -12 6 -17 15 -18 35 -1 13 11 13 16 -1 55 -16 40 -18 41
-36 27z"/>
<path d="M2088 853 c-21 -5 -22 -12 -4 -35 10 -13 19 -15 42 -8 21 6 23 9 9 9
-17 1 -18 3 -5 12 11 8 8 9 -14 4 -26 -5 -28 -4 -17 9 8 9 12 15 10 15 -2 -1
-12 -3 -21 -6z"/>
<path d="M2282 812 c-10 -3 -10 -7 -1 -18 9 -12 9 -13 -4 -9 -8 4 -18 2 -21
-3 -3 -5 7 -8 21 -6 35 4 47 -4 32 -22 -7 -9 -8 -14 -1 -14 21 0 22 19 5 48
-10 16 -24 27 -31 24z"/>
<path d="M2100 769 c0 -6 10 -8 23 -5 12 3 16 3 10 0 -7 -3 -13 -11 -13 -17 0
-8 3 -8 11 0 6 6 18 9 25 6 8 -3 14 -1 14 5 0 5 -10 12 -22 16 -34 9 -48 7
-48 -5z"/>
<path d="M2333 707 c-25 -11 -31 -27 -10 -27 19 0 52 26 41 32 -5 3 -19 1 -31
-5z"/>
<path d="M2150 660 c0 -28 2 -30 38 -29 37 1 37 1 7 9 -28 7 -29 8 -5 10 15 1
19 4 10 7 -43 14 -44 16 -15 23 l30 8 -32 1 c-30 1 -33 -2 -33 -29z"/>
<path d="M1004 1132 c5 -9 3 -12 -5 -10 -8 1 -14 -1 -14 -6 0 -17 43 -15 57 2
10 13 10 14 0 8 -7 -4 -20 -2 -29 6 -14 10 -15 10 -9 0z"/>
<path d="M1514 1005 c2 -14 46 -53 46 -41 0 3 11 -5 24 -17 72 -67 95 -85 99
-80 11 10 -136 131 -151 125 -10 -3 -13 -1 -8 6 3 6 2 13 -3 16 -5 4 -8 -1 -7
-9z"/>
<path d="M1180 1670 c-17 -5 1 -8 55 -8 54 1 102 -6 149 -21 78 -24 103 -27
66 -6 -68 36 -208 55 -270 35z"/>
<path d="M1670 1531 c29 -12 70 -43 70 -53 0 -6 -8 -4 -17 3 -17 13 -17 12 -2
-6 9 -11 22 -31 29 -45 12 -23 12 -24 -3 -11 -15 12 -16 10 -8 -15 5 -16 12
-42 16 -58 4 -21 9 -26 15 -17 6 10 12 6 24 -15 12 -24 15 -25 15 -9 1 31 -26
135 -46 184 -18 41 -21 43 -63 46 -25 2 -38 0 -30 -4z"/>
<path d="M1208 1474 c-4 -3 2 -15 13 -27 10 -11 19 -29 19 -39 0 -10 5 -18 10
-18 6 0 10 -5 10 -11 0 -18 28 -41 35 -28 4 6 13 8 20 5 7 -2 16 2 19 10 3 9
10 12 16 9 5 -3 10 -1 10 4 0 6 6 11 14 11 8 0 16 7 20 15 3 8 11 15 17 15 7
0 20 7 30 16 16 15 20 15 34 1 8 -9 15 -20 15 -26 0 -14 -100 -89 -164 -123
-28 -15 -47 -27 -43 -28 7 0 79 36 117 59 8 5 30 15 48 22 18 6 30 14 28 17
-6 5 48 77 79 105 11 10 13 15 5 11 -8 -4 -25 -16 -37 -27 -23 -20 -43 -16
-43 9 0 11 -9 10 -41 -8 -23 -13 -53 -29 -68 -37 -14 -8 -29 -19 -33 -25 -4
-5 -19 -12 -35 -13 -24 -3 -30 2 -45 34 -21 48 -42 76 -50 67z"/>
<path d="M1729 1300 c-1 -32 -2 -33 -8 -10 -7 23 -8 23 -15 -12 -4 -21 -18
-50 -32 -65 -14 -16 -23 -23 -20 -17 3 6 -11 3 -32 -7 -20 -10 -66 -23 -102
-28 l-65 -10 85 3 c60 2 95 8 120 21 19 11 38 18 43 17 8 -2 16 15 37 81 9 29
9 42 1 50 -8 8 -11 2 -12 -23z"/>
<path d="M1443 1186 c2 -6 23 -12 48 -14 53 -4 46 8 -11 18 -29 5 -40 4 -37
-4z"/>
<path d="M1780 1147 c0 -8 4 -27 10 -42 7 -19 7 -24 -1 -19 -13 8 -14 9 29
-76 18 -36 26 -56 18 -45 -39 52 -45 56 -20 10 67 -123 70 -108 13 60 -42 124
-49 140 -49 112z"/>
<path d="M1104 1078 c4 -13 9 -57 12 -98 4 -48 15 -97 31 -135 29 -68 80 -138
94 -129 5 3 9 -1 9 -9 0 -8 7 -20 15 -27 8 -7 15 -9 15 -4 -1 12 -39 61 -40
50 0 -13 -46 58 -76 117 -23 44 -38 131 -44 250 0 4 -5 7 -11 7 -7 0 -9 -9 -5
-22z"/>
<path d="M586 1037 c79 -156 234 -311 391 -391 100 -50 82 -26 -45 59 -141 94
-230 185 -318 327 -40 66 -60 69 -28 5z"/>
<path d="M1448 939 c70 -71 117 -157 128 -233 5 -34 9 -44 15 -34 9 16 -9 97
-33 156 -16 36 -93 121 -141 154 -19 12 -6 -5 31 -43z"/>
<path d="M1760 884 c0 -4 17 -28 38 -53 61 -73 120 -173 92 -156 -5 3 0 -16
12 -42 24 -56 33 -69 24 -33 l-7 25 22 -25 22 -25 -8 35 c-8 39 -33 96 -67
152 -22 37 -128 137 -128 122z"/>
<path d="M1301 674 c15 -18 44 -34 71 -39 20 -4 20 -4 3 15 -10 11 -20 18 -23
15 -3 -3 -12 1 -20 7 -8 7 -21 13 -29 14 -11 2 -12 0 -2 -12z"/>
<path d="M1388 659 c12 -14 20 -28 18 -30 -3 -3 4 -5 15 -6 25 -2 17 10 -24
38 l-32 23 23 -25z"/>
<path d="M1894 543 c-1 -72 0 -76 12 -48 16 37 16 62 1 98 -11 25 -12 20 -13
-50z"/>
<path d="M1146 531 c-4 -6 -3 -11 1 -11 5 0 16 -12 25 -27 10 -16 17 -21 18
-13 0 23 -36 65 -44 51z"/>
<path d="M2155 380 c-25 -49 -19 -69 10 -30 14 19 25 40 25 47 0 23 -19 14
-35 -17z"/>
<path d="M2194 364 c3 -7 -1 -14 -9 -18 -8 -3 -15 -11 -15 -17 0 -8 4 -8 15 1
12 10 15 10 15 -1 0 -10 3 -10 12 -1 10 10 8 16 -6 30 -11 9 -16 12 -12 6z"/>
<path d="M1351 356 c2 -2 108 -6 234 -9 132 -4 219 -2 205 2 -24 9 -448 15
-439 7z"/>
<path d="M2310 320 c25 -6 69 -15 98 -22 28 -6 52 -15 52 -19 0 -5 -17 -12
-37 -18 -21 -5 -56 -14 -78 -19 -37 -9 -37 -10 -10 -11 41 -1 166 26 179 39
22 22 -55 45 -180 54 -62 5 -65 5 -24 -4z"/>
<path d="M617 305 c-32 -7 -60 -15 -63 -18 -35 -35 171 -68 531 -87 224 -12
755 -13 755 -2 0 4 -150 8 -333 9 -318 1 -572 9 -647 19 -54 7 -173 26 -195
31 -11 2 -26 5 -33 7 -27 5 -11 22 33 33 25 6 52 14 58 17 24 9 -50 4 -106 -9z"/>
<path d="M1927 203 c18 -2 50 -2 70 0 21 2 7 4 -32 4 -38 0 -55 -2 -38 -4z"/>
</g>
</svg>
